<?xml version="1.0" standalone="no"?>
<svg version="1" xmlns="http://www.w3.org/2000/svg" width="512pt" height="512pt" viewBox="0 0 512 512" preserveAspectRatio="xMidYMid meet">
<g transform="matrix(0.1,0,0,-0.1,0,512)" fill="#000000" stroke="none">
<path d="M 500 500 L 4540 500 L 4540 4540 L 500 4540 Z" fill="white" />
<path d="M 640 5040 l 0 -80 l -160 0 l -160 0 l 0 -80 l 0 -80 l -80 0 l -80 0 l 0 -160 l 0 -160 l -80 0 l -80 0 l 0 -1920 l 0 -1920 l 80 0 l 80 0 l 0 -160 l 0 -160 l 80 0 l 80 0 l 0 -80 l 0 -80 l 160 0 l 160 0 l 0 -80 l 0 -80 l 1920 0 l 1920 0 l 0 80 l 0 80 l 160 0 l 160 0 l 0 80 l 0 80 l 80 0 l 80 0 l 0 160 l 0 160 l 80 0 l 80 0 l 0 1920 l 0 1920 l -80 0 l -80 0 l 0 160 l 0 160 l -80 0 l -80 0 l 0 80 l 0 80 l -160 0 l -160 0 l 0 80 l 0 80 l -1920 0 l -1920 0 l 0 -80 z m 3520 -640 l 0 -80 l 80 0 l 80 0 l 0 -80 l 0 -80 l 80 0 l 80 0 l 0 -1600 l 0 -1600 l -80 0 l -80 0 l 0 -80 l 0 -80 l -80 0 l -80 0 l 0 -80 l 0 -80 l -1600 0 l -1600 0 l 0 80 l 0 80 l -80 0 l -80 0 l 0 80 l 0 80 l -80 0 l -80 0 l 0 1600 l 0 1600 l 80 0 l 80 0 l 0 80 l 0 80 l 80 0 l 80 0 l 0 80 l 0 80 l 1600 0 l 1600 0 l 0 -80 z"/>
<path d="M 1920 3600 l 0 -80 l -80 0 l -80 0 l 0 -960 l 0 -960 l 80 0 l 80 0 l 0 -80 l 0 -80 l 640 0 l 640 0 l 0 80 l 0 80 l 80 0 l 80 0 l 0 160 l 0 160 l -480 0 l -480 0 l 0 80 l 0 80 l -80 0 l -80 0 l 0 160 l 0 160 l 400 0 l 400 0 l 0 80 l 0 80 l 80 0 l 80 0 l 0 80 l 0 80 l -480 0 l -480 0 l 0 160 l 0 160 l 80 0 l 80 0 l 0 80 l 0 80 l 480 0 l 480 0 l 0 160 l 0 160 l -80 0 l -80 0 l 0 80 l 0 80 l -640 0 l -640 0 l 0 -80 z"/>
</g>
</svg>
